<svg width="150" height="40" viewBox="0 0 150 40" fill="none" xmlns="http://www.w3.org/2000/svg">
<path d="M17.3205 2.99635L34.641 32.9964H0L17.3205 2.99635Z" fill="black"/>
<path d="M15.3205 28.9964H19.3205V32.9964H15.3205V28.9964Z" fill="white"/>
<path d="M15.3205 32.9964H19.3205V36.9964H15.3205V32.9964Z" fill="black"/>
<path d="M42.641 39.9927V7.81899H45.9196V13.0647L45.395 12.1467C46.3276 10.6604 47.5662 9.48013 49.1107 8.60585C50.6845 7.73156 52.4767 7.29442 54.4876 7.29442C56.7025 7.29442 58.6696 7.83356 60.389 8.91185C62.1376 9.96099 63.5073 11.4036 64.4982 13.2396C65.5182 15.0756 66.0282 17.1738 66.0282 19.5344C66.0282 21.8658 65.5182 23.9641 64.4982 25.8293C63.5073 27.6653 62.1376 29.1224 60.389 30.2007C58.6696 31.2498 56.7025 31.7744 54.4876 31.7744C52.4767 31.7744 50.6553 31.3227 49.0233 30.4193C47.4205 29.4867 46.211 28.1753 45.395 26.485L45.9196 26.0041V39.9927H42.641ZM54.3127 28.4958C55.8865 28.4958 57.2853 28.1024 58.5093 27.3156C59.7625 26.5287 60.7387 25.465 61.4382 24.1244C62.1667 22.7547 62.531 21.2247 62.531 19.5344C62.531 17.815 62.1667 16.285 61.4382 14.9444C60.7387 13.6038 59.7625 12.5401 58.5093 11.7533C57.2853 10.9664 55.8865 10.573 54.3127 10.573C52.739 10.573 51.311 10.9664 50.0287 11.7533C48.7756 12.5401 47.7702 13.6184 47.0125 14.9881C46.2839 16.3287 45.9196 17.8441 45.9196 19.5344C45.9196 21.2247 46.2839 22.7547 47.0125 24.1244C47.7702 25.465 48.7756 26.5287 50.0287 27.3156C51.311 28.1024 52.739 28.4958 54.3127 28.4958Z" fill="black"/>
<path d="M68.301 31.2498V7.81899H71.5795V31.2498H68.301ZM68.301 3.49128V5.36442e-06L71.5795 0V3.49128H68.301Z" fill="black"/>
<path d="M74.7932 31.2498V7.81899H78.0718V12.3653L77.3286 12.1904C77.9115 10.675 78.8586 9.48013 80.1701 8.60585C81.5106 7.73156 83.0552 7.29442 84.8038 7.29442C86.4649 7.29442 87.9512 7.67328 89.2626 8.43099C90.6032 9.18871 91.6524 10.2378 92.4101 11.5784C93.1969 12.8898 93.5904 14.3761 93.5904 16.0373V31.2498H90.3118V17.305C90.3118 15.877 90.0495 14.6676 89.5249 13.6767C89.0295 12.6858 88.3155 11.9281 87.3829 11.4036C86.4795 10.8498 85.4304 10.573 84.2355 10.573C83.0407 10.573 81.9769 10.8498 81.0444 11.4036C80.1118 11.9281 79.3832 12.7004 78.8587 13.7204C78.3341 14.7113 78.0718 15.9061 78.0718 17.305V31.2498H74.7932Z" fill="black"/>
<path d="M107.021 31.7744C104.836 31.7744 102.854 31.2498 101.076 30.2007C99.3275 29.1224 97.9432 27.6507 96.9232 25.7856C95.9032 23.9204 95.3932 21.8076 95.3932 19.447C95.3932 17.0864 95.8887 15.0027 96.8795 13.1958C97.8704 11.3598 99.211 9.91728 100.901 8.86813C102.621 7.81899 104.544 7.29442 106.672 7.29442C108.362 7.29442 109.863 7.61499 111.174 8.25613C112.515 8.86813 113.651 9.71328 114.584 10.7916C115.516 11.8407 116.23 13.0356 116.726 14.3761C117.221 15.6876 117.469 17.0427 117.469 18.4416C117.469 18.733 117.454 19.0681 117.425 19.447C117.396 19.7967 117.352 20.161 117.294 20.5398H97.4915V17.4798H115.414L113.841 18.7913C114.103 17.1884 113.914 15.7604 113.272 14.5073C112.66 13.225 111.772 12.2196 110.606 11.491C109.44 10.7333 108.129 10.3544 106.672 10.3544C105.214 10.3544 103.859 10.7333 102.606 11.491C101.382 12.2487 100.42 13.3124 99.721 14.6821C99.0215 16.0227 98.7447 17.6256 98.8904 19.4907C98.7447 21.3558 99.0361 22.9878 99.7647 24.3867C100.522 25.7564 101.542 26.8201 102.825 27.5778C104.136 28.3356 105.535 28.7144 107.021 28.7144C108.741 28.7144 110.183 28.3064 111.349 27.4904C112.515 26.6744 113.462 25.6544 114.19 24.4304L116.988 25.9167C116.522 26.9658 115.808 27.9421 114.846 28.8456C113.884 29.7198 112.733 30.4338 111.393 30.9876C110.081 31.5121 108.624 31.7744 107.021 31.7744Z" fill="black"/>
<path d="M127.883 31.7744C125.639 31.7744 123.672 31.2061 121.982 30.0696C120.291 28.933 119.067 27.3884 118.31 25.4359L121.064 24.1244C121.734 25.5524 122.667 26.689 123.861 27.5341C125.085 28.3793 126.426 28.8018 127.883 28.8018C129.282 28.8018 130.462 28.4667 131.424 27.7964C132.386 27.097 132.867 26.1936 132.867 25.0861C132.867 24.2701 132.633 23.629 132.167 23.1627C131.701 22.6673 131.162 22.2884 130.55 22.0261C129.938 21.7638 129.399 21.5744 128.932 21.4578L125.566 20.4961C123.41 19.8841 121.851 19.0244 120.889 17.917C119.927 16.8096 119.446 15.5273 119.446 14.0701C119.446 12.7004 119.796 11.5056 120.495 10.4856C121.195 9.46556 122.142 8.6787 123.337 8.12499C124.532 7.57128 125.858 7.29442 127.315 7.29442C129.297 7.29442 131.089 7.81899 132.692 8.86813C134.324 9.88813 135.475 11.3161 136.145 13.1521L133.347 14.4636C132.765 13.1521 131.919 12.1321 130.812 11.4036C129.734 10.6458 128.524 10.267 127.184 10.267C125.872 10.267 124.823 10.6021 124.036 11.2724C123.249 11.9427 122.856 12.7878 122.856 13.8078C122.856 14.5947 123.06 15.2213 123.468 15.6876C123.876 16.1538 124.342 16.5036 124.867 16.7367C125.421 16.9698 125.901 17.1447 126.309 17.2613L130.2 18.3979C132.094 18.9516 133.566 19.8113 134.615 20.977C135.693 22.1427 136.233 23.5124 136.233 25.0861C136.233 26.3684 135.868 27.5196 135.14 28.5396C134.44 29.5596 133.464 30.361 132.211 30.9438C130.958 31.4976 129.515 31.7744 127.883 31.7744Z" fill="black"/>
<path d="M147.458 31.5121C145.36 31.5121 143.742 30.9001 142.606 29.6761C141.469 28.4521 140.901 26.7036 140.901 24.4304V11.0976H136.573V7.81899H137.666C138.657 7.81899 139.444 7.49842 140.027 6.85728C140.609 6.18699 140.901 5.35642 140.901 4.36556V2.39842H144.179V7.81899H149.338V11.0976H144.179V24.4304C144.179 25.2173 144.296 25.9167 144.529 26.5287C144.762 27.1116 145.156 27.5778 145.709 27.9276C146.292 28.2773 147.065 28.4521 148.026 28.4521C148.259 28.4521 148.536 28.4376 148.857 28.4084C149.177 28.3793 149.454 28.3501 149.687 28.321V31.2498C149.338 31.3373 148.944 31.3956 148.507 31.4247C148.07 31.483 147.72 31.5121 147.458 31.5121Z" fill="black"/>
</svg>
