<svg width="148" height="40" viewBox="0 0 148 40" fill="none" xmlns="http://www.w3.org/2000/svg">
<path d="M16 2.99635L32 31.0208H19.1408V25.0423H13.2287V31.0208H0L16 2.99635Z" fill="#025940"/>
<path d="M13.2287 31.0178H19.1408V36.9964H13.2287V31.0178Z" fill="#025940"/>
<path d="M40 39.9927V7.81899H43.2786V13.0647L42.754 12.1467C43.6866 10.6604 44.9251 9.48013 46.4697 8.60585C48.0434 7.73156 49.8357 7.29442 51.8466 7.29442C54.0614 7.29442 56.0286 7.83356 57.748 8.91185C59.4966 9.96099 60.8663 11.4036 61.8571 13.2396C62.8771 15.0756 63.3871 17.1738 63.3871 19.5344C63.3871 21.8658 62.8771 23.9641 61.8571 25.8293C60.8663 27.6653 59.4966 29.1224 57.748 30.2007C56.0286 31.2498 54.0614 31.7744 51.8466 31.7744C49.8357 31.7744 48.0143 31.3227 46.3823 30.4193C44.7794 29.4867 43.57 28.1753 42.754 26.485L43.2786 26.0041V39.9927H40ZM51.6717 28.4958C53.2454 28.4958 54.6443 28.1024 55.8683 27.3156C57.1214 26.5287 58.0977 25.465 58.7971 24.1244C59.5257 22.7547 59.89 21.2247 59.89 19.5344C59.89 17.815 59.5257 16.285 58.7971 14.9444C58.0977 13.6038 57.1214 12.5401 55.8683 11.7533C54.6443 10.9664 53.2454 10.573 51.6717 10.573C50.098 10.573 48.67 10.9664 47.3877 11.7533C46.1346 12.5401 45.1291 13.6184 44.3714 14.9881C43.6429 16.3287 43.2786 17.8441 43.2786 19.5344C43.2786 21.2247 43.6429 22.7547 44.3714 24.1244C45.1291 25.465 46.1346 26.5287 47.3877 27.3156C48.67 28.1024 50.098 28.4958 51.6717 28.4958Z" fill="black"/>
<path d="M65.6599 31.2498V7.81899H68.9385V31.2498H65.6599ZM65.6599 3.49128V5.36442e-06L68.9385 0V3.49128H65.6599Z" fill="black"/>
<path d="M72.1522 31.2498V7.81899H75.4308V12.3653L74.6876 12.1904C75.2705 10.675 76.2176 9.48013 77.5291 8.60585C78.8696 7.73156 80.4142 7.29442 82.1628 7.29442C83.8239 7.29442 85.3102 7.67328 86.6216 8.43099C87.9622 9.18871 89.0113 10.2378 89.7691 11.5784C90.5559 12.8898 90.9493 14.3761 90.9493 16.0373V31.2498H87.6708V17.305C87.6708 15.877 87.4085 14.6676 86.8839 13.6767C86.3885 12.6858 85.6745 11.9281 84.7419 11.4036C83.8385 10.8498 82.7893 10.573 81.5945 10.573C80.3996 10.573 79.3359 10.8498 78.4033 11.4036C77.4708 11.9281 76.7422 12.7004 76.2176 13.7204C75.6931 14.7113 75.4308 15.9061 75.4308 17.305V31.2498H72.1522Z" fill="black"/>
<path d="M104.38 31.7744C102.195 31.7744 100.213 31.2498 98.4351 30.2007C96.6865 29.1224 95.3022 27.6507 94.2822 25.7856C93.2622 23.9204 92.7522 21.8076 92.7522 19.447C92.7522 17.0864 93.2476 15.0027 94.2385 13.1958C95.2294 11.3598 96.5699 9.91728 98.2602 8.86813C99.9796 7.81899 101.903 7.29442 104.031 7.29442C105.721 7.29442 107.222 7.61499 108.533 8.25613C109.874 8.86813 111.01 9.71328 111.943 10.7916C112.875 11.8407 113.589 13.0356 114.085 14.3761C114.58 15.6876 114.828 17.0427 114.828 18.4416C114.828 18.733 114.813 19.0681 114.784 19.447C114.755 19.7967 114.711 20.161 114.653 20.5398H94.8505V17.4798H112.773L111.2 18.7913C111.462 17.1884 111.273 15.7604 110.631 14.5073C110.019 13.225 109.131 12.2196 107.965 11.491C106.799 10.7333 105.488 10.3544 104.031 10.3544C102.573 10.3544 101.218 10.7333 99.9651 11.491C98.7411 12.2487 97.7794 13.3124 97.0799 14.6821C96.3805 16.0227 96.1036 17.6256 96.2494 19.4907C96.1036 21.3558 96.3951 22.9878 97.1236 24.3867C97.8814 25.7564 98.9014 26.8201 100.184 27.5778C101.495 28.3356 102.894 28.7144 104.38 28.7144C106.1 28.7144 107.542 28.3064 108.708 27.4904C109.874 26.6744 110.821 25.6544 111.549 24.4304L114.347 25.9167C113.881 26.9658 113.167 27.9421 112.205 28.8456C111.243 29.7199 110.092 30.4338 108.752 30.9876C107.44 31.5121 105.983 31.7744 104.38 31.7744Z" fill="black"/>
<path d="M125.242 31.7744C122.998 31.7744 121.031 31.2061 119.341 30.0696C117.65 28.933 116.426 27.3884 115.669 25.4359L118.423 24.1244C119.093 25.5524 120.026 26.689 121.22 27.5341C122.444 28.3793 123.785 28.8018 125.242 28.8018C126.641 28.8018 127.821 28.4667 128.783 27.7964C129.745 27.097 130.226 26.1936 130.226 25.0861C130.226 24.2701 129.992 23.629 129.526 23.1627C129.06 22.6673 128.521 22.2884 127.909 22.0261C127.297 21.7638 126.758 21.5744 126.291 21.4578L122.925 20.4961C120.769 19.8841 119.21 19.0244 118.248 17.917C117.286 16.8096 116.805 15.5273 116.805 14.0701C116.805 12.7004 117.155 11.5056 117.854 10.4856C118.554 9.46556 119.501 8.6787 120.696 8.12499C121.891 7.57128 123.217 7.29442 124.674 7.29442C126.656 7.29442 128.448 7.81899 130.051 8.86813C131.683 9.88813 132.834 11.3161 133.504 13.1521L130.706 14.4636C130.124 13.1521 129.278 12.1321 128.171 11.4036C127.093 10.6458 125.883 10.267 124.543 10.267C123.231 10.267 122.182 10.6021 121.395 11.2724C120.608 11.9427 120.215 12.7878 120.215 13.8078C120.215 14.5947 120.419 15.2213 120.827 15.6876C121.235 16.1538 121.701 16.5036 122.226 16.7367C122.78 16.9698 123.26 17.1447 123.668 17.2613L127.559 18.3979C129.453 18.9516 130.925 19.8113 131.974 20.977C133.052 22.1427 133.592 23.5124 133.592 25.0861C133.592 26.3684 133.227 27.5196 132.499 28.5396C131.799 29.5596 130.823 30.361 129.57 30.9438C128.317 31.4976 126.874 31.7744 125.242 31.7744Z" fill="black"/>
<path d="M144.817 31.5121C142.719 31.5121 141.101 30.9001 139.965 29.6761C138.828 28.4521 138.26 26.7036 138.26 24.4304V11.0976H133.932V7.81899H135.025C136.016 7.81899 136.803 7.49842 137.386 6.85728C137.968 6.18699 138.26 5.35642 138.26 4.36556V2.39842H141.538V7.81899H146.697V11.0976H141.538V24.4304C141.538 25.2173 141.655 25.9167 141.888 26.5287C142.121 27.1116 142.515 27.5778 143.068 27.9276C143.651 28.2773 144.424 28.4521 145.385 28.4521C145.618 28.4521 145.895 28.4376 146.216 28.4084C146.536 28.3793 146.813 28.3501 147.046 28.321V31.2498C146.697 31.3373 146.303 31.3956 145.866 31.4247C145.429 31.483 145.079 31.5121 144.817 31.5121Z" fill="black"/>
</svg>
